<svg aria-hidden="true" style="position: absolute; width: 0; height: 0; overflow: hidden;" version="1.1" xmlns="http://www.w3.org/2000/svg" >
  <defs>
  
    <symbol id="icon-170" viewBox="0 0 16 15">
      <path class="cls-1" d="M1131.44,923.533a0.174,0.174,0,0,0-.18-0.016l-15.68,7.949a0.161,0.161,0,0,0-.08.156,0.155,0.155,0,0,0,.11.14l4.96,1.565a0.173,0.173,0,0,0,.16-0.034l7.54-6.4-5.79,6.8a0.137,0.137,0,0,0-.03.149,0.145,0.145,0,0,0,.1.107l5.83,1.759a0.14,0.14,0,0,0,.04.007,0.153,0.153,0,0,0,.08-0.021,0.161,0.161,0,0,0,.08-0.1l2.91-11.9A0.165,0.165,0,0,0,1131.44,923.533Zm-7.18,12.161-1.61-.491a0.178,0.178,0,0,0-.15.024,0.158,0.158,0,0,0-.06.129v3.012a0.162,0.162,0,0,0,.12.154,0.14,0.14,0,0,0,.04.007,0.175,0.175,0,0,0,.14-0.075l1.61-2.522a0.171,0.171,0,0,0,.01-0.14A0.157,0.157,0,0,0,1124.26,935.694Z" transform="translate(-1115.5 -923.531)"/>

    </symbol>

    <symbol id="icon-155" viewBox="0 0 11.657 16">
      <path class="cls-1" d="M891.22,935.989l-3.065-8.291v-2.44a1.473,1.473,0,0,0,.994-1.389v-0.4A1.476,1.476,0,0,0,887.67,922H883.3a1.477,1.477,0,0,0-1.479,1.471v0.4a1.471,1.471,0,0,0,1,1.388V927.7l-3.059,8.275a1.464,1.464,0,0,0,.142,1.376,1.479,1.479,0,0,0,1.228.649h8.722a1.476,1.476,0,0,0,1.227-.65A1.45,1.45,0,0,0,891.22,935.989Zm-8.111-1.88a0.5,0.5,0,1,1,.5.5A0.5,0.5,0,0,1,883.109,934.109Zm3.25,0.437a0.866,0.866,0,1,1-.871.865A0.869,0.869,0,0,1,886.359,934.546Zm-0.742-1.9a0.628,0.628,0,1,1,.629.624A0.628,0.628,0,0,1,885.617,932.648Zm-1.828-4.777v-3.018l0-.487H883.3a0.5,0.5,0,0,1-.5-0.5v-0.4a0.5,0.5,0,0,1,.5-0.5h4.375a0.5,0.5,0,0,1,.5.5v0.4a0.5,0.5,0,0,1-.5.5h-0.49v3.5l0.859,2.321c-0.012.011-.022,0.018-0.034,0.03-0.639.66-5.308,0.736-5.308,0.736h-0.045Zm1.353,1.873a0.678,0.678,0,1,0-.682-0.678A0.681,0.681,0,0,0,885.142,929.744Z" transform="translate(-879.656 -922)"/>

    </symbol>

    <symbol id="icon-128" viewBox="0 0 16 16">
      <path class="cls-1" d="M411.663,925h-5.676l2.239-2.687a0.616,0.616,0,0,0,.1.02,0.69,0.69,0,1,0-.621-0.441L405.119,925h-0.243l-2.589-3.108a0.683,0.683,0,0,0,.045-0.226,0.667,0.667,0,1,0-.667.667,0.6,0.6,0,0,0,.1-0.02L404.008,925h-5.676A1.334,1.334,0,0,0,397,926.334v9.337a1.333,1.333,0,0,0,1.332,1.334h13.331A1.333,1.333,0,0,0,413,935.671v-9.337A1.334,1.334,0,0,0,411.663,925ZM409,934.337a1.334,1.334,0,0,1-1.334,1.334h-8a1.334,1.334,0,0,1-1.334-1.334v-6.669a1.334,1.334,0,0,1,1.334-1.334h8A1.334,1.334,0,0,1,409,927.668v6.669Zm1.964-5.96a0.953,0.953,0,1,1,.951-0.953A0.953,0.953,0,0,1,410.961,928.377Z" transform="translate(-397 -921)"/>

    </symbol>

    <symbol id="icon-153" viewBox="0 0 16 15.656">
        <path class="cls-1" d="M650.3,935.3c-0.6-.042-1.29-0.076-2.033-0.1a6.866,6.866,0,0,0,1.671-2.25,1.6,1.6,0,0,0,2.689-.764,1.627,1.627,0,0,0-.189-1.227,1.593,1.593,0,0,0-1.758-.723,8.817,8.817,0,0,0,.048-0.881,0.562,0.562,0,0,0-.559-0.565h-10.34a0.563,0.563,0,0,0-.559.565,7.746,7.746,0,0,0,2.458,5.845c-0.741.025-1.429,0.059-2.03,0.1-2.091.148-2.7,0.289-2.7,0.936s0.608,0.788,2.7.936c1.418,0.1,3.3.156,5.3,0.156s3.883-.056,5.3-0.156c2.092-.148,2.7-0.289,2.7-0.936S652.392,935.449,650.3,935.3Zm0.268-4.3a0.075,0.075,0,0,0,.013-0.006,0.932,0.932,0,0,1,1.285.316,0.951,0.951,0,0,1-.312,1.3,0.927,0.927,0,0,1-1.285-.316,0.324,0.324,0,0,0-.04-0.043A8.381,8.381,0,0,0,650.568,931Zm-10.16-1.081h9.183c-0.22,3.044-2.2,5.434-4.592,5.434S640.628,932.964,640.408,929.92Zm3.555-2.285,0.038,0a0.452,0.452,0,0,0,.422-0.607,3.206,3.206,0,0,1,.123-2.3,2.938,2.938,0,0,0,.572-2.369,1.08,1.08,0,0,0-.665-0.676,0.453,0.453,0,0,0-.557.305,0.449,0.449,0,0,0,.283.557,0.221,0.221,0,0,1,.1.126,2.061,2.061,0,0,1-.483,1.565l-0.022.036c-0.045.075-.093,0.153-0.146,0.234-0.681,1.056-.885,1.887-0.606,2.47A1.207,1.207,0,0,0,643.963,927.635Zm2.385,0.084h0.031a0.425,0.425,0,0,0,.4-0.57,1.818,1.818,0,0,1,.064-1.286,1.908,1.908,0,0,0,.363-1.583,0.8,0.8,0,0,0-.5-0.5,0.43,0.43,0,0,0-.523.287,0.425,0.425,0,0,0,.034.324,0.416,0.416,0,0,0,.249.205,0.263,0.263,0,0,1-.046-0.016,1.171,1.171,0,0,1-.281.827l-0.026.043c-0.024.04-.05,0.082-0.078,0.125a1.752,1.752,0,0,0-.382,1.661A0.883,0.883,0,0,0,646.348,927.719Z" transform="translate(-637 -921.688)"/>

    </symbol>
  </defs>
</svg>
